<svg width="123" height="56" viewBox="0 0 123 56" fill="none" xmlns="http://www.w3.org/2000/svg">
<g filter="url(#filter0_d_215_2)">
<path d="M40.7084 35.8078L38.2671 31.6618L36.9622 31.6748L37.0035 35.8446L35.2936 35.8615L35.1902 25.437L38.79 25.4013C39.59 25.3934 40.2663 25.5267 40.8191 25.8012C41.3818 26.0756 41.8005 26.4465 42.0752 26.9138C42.3598 27.381 42.505 27.9046 42.5108 28.4846C42.5175 29.1645 42.3237 29.7865 41.9293 30.3504C41.5447 30.9043 40.9435 31.2853 40.1255 31.4934L42.7483 35.7876L40.7084 35.8078ZM36.9486 30.3098L38.8385 30.2911C39.4785 30.2847 39.9569 30.12 40.2737 29.7968C40.6005 29.4736 40.7612 29.0419 40.7559 28.502C40.7505 27.962 40.5864 27.5436 40.2634 27.2468C39.9403 26.94 39.4538 26.7898 38.8038 26.7963L36.9139 26.815L36.9486 30.3098ZM52.1733 27.4286L52.2553 35.6932L50.5454 35.7102L50.5357 34.7352C50.2691 35.0779 49.9168 35.3514 49.4788 35.5558C49.0507 35.75 48.5917 35.8496 48.1017 35.8545C47.4518 35.8609 46.8654 35.7317 46.3428 35.4669C45.8301 35.202 45.4212 34.806 45.1159 34.279C44.8207 33.7519 44.6694 33.1134 44.6619 32.3634L44.6137 27.5036L46.3086 27.4868L46.3543 32.0916C46.3616 32.8316 46.5523 33.3997 46.9262 33.796C47.3001 34.1823 47.807 34.3723 48.447 34.366C49.0869 34.3596 49.59 34.1596 49.9561 33.7659C50.3321 33.3622 50.5164 32.7903 50.5091 32.0504L50.4634 27.4456L52.1733 27.4286ZM53.9001 31.5067C53.8918 30.6767 54.0545 29.9401 54.3882 29.2968C54.7318 28.6533 55.1969 28.1537 55.7834 27.7978C56.3798 27.4319 57.043 27.2453 57.7729 27.2381C58.3129 27.2327 58.8441 27.3474 59.3664 27.5823C59.8987 27.807 60.3217 28.1128 60.6356 28.4997L60.596 24.5099L62.3209 24.4928L62.431 35.5923L60.7061 35.6094L60.6938 34.3644C60.4178 34.7672 60.031 35.101 59.5337 35.366C59.0463 35.6308 58.4826 35.7664 57.8426 35.7728C57.1226 35.7799 56.4609 35.6065 55.8573 35.2525C55.2637 34.8883 54.7887 34.383 54.4322 33.7365C54.0857 33.0799 53.9083 32.3367 53.9001 31.5067ZM60.665 31.4696C60.6594 30.8996 60.5345 30.4058 60.2903 29.9882C60.0562 29.5705 59.748 29.2536 59.3658 29.0373C58.9837 28.8211 58.5726 28.7152 58.1326 28.7196C57.6927 28.7239 57.2838 28.838 56.906 29.0618C56.5281 29.2755 56.2212 29.5936 55.9854 30.0159C55.7595 30.4282 55.6493 30.9193 55.655 31.4893C55.6607 32.0593 55.7806 32.5581 56.0149 32.9858C56.2591 33.4134 56.5724 33.7403 56.9546 33.9665C57.3468 34.1826 57.7579 34.2886 58.1879 34.2843C58.6278 34.2799 59.0367 34.1659 59.4145 33.9421C59.7923 33.7183 60.0941 33.3953 60.3199 32.9731C60.5557 32.5407 60.6707 32.0395 60.665 31.4696ZM65.454 26.2018C65.144 26.2049 64.883 26.1025 64.6709 25.8946C64.4589 25.6866 64.3513 25.4277 64.3482 25.1177C64.3451 24.8077 64.4476 24.5467 64.6555 24.3346C64.8634 24.1226 65.1223 24.015 65.4323 24.0119C65.7323 24.0089 65.9883 24.1114 66.2004 24.3193C66.4125 24.5272 66.52 24.7862 66.5231 25.0961C66.5262 25.4061 66.4238 25.6672 66.2159 25.8792C66.008 26.0913 65.754 26.1988 65.454 26.2018ZM66.3049 27.2884L66.3869 35.553L64.6769 35.57L64.5949 27.3054L66.3049 27.2884ZM68.0205 31.3666C68.0122 30.5366 68.1749 29.8 68.5086 29.1566C68.8522 28.5132 69.3173 28.0136 69.9038 27.6577C70.5002 27.2918 71.1634 27.1052 71.8933 27.098C72.4333 27.0926 72.9645 27.2073 73.4868 27.4422C74.0191 27.6669 74.4421 27.9727 74.756 28.3596L74.7164 24.3698L76.4413 24.3527L76.5514 35.4521L74.8265 35.4693L74.8142 34.2243C74.5382 34.6271 74.1514 34.9609 73.6541 35.2259C73.1667 35.4907 72.603 35.6263 71.963 35.6327C71.243 35.6398 70.5813 35.4664 69.9777 35.1124C69.3841 34.7482 68.9091 34.2429 68.5526 33.5964C68.2061 32.9398 68.0287 32.1965 68.0205 31.3666ZM74.7854 31.3295C74.7798 30.7595 74.6549 30.2657 74.4107 29.8481C74.1766 29.4304 73.8684 29.1135 73.4862 28.8972C73.1041 28.681 72.693 28.5751 72.253 28.5795C71.8131 28.5838 71.4042 28.6979 71.0264 28.9216C70.6485 29.1354 70.3416 29.4535 70.1058 29.8758C69.8799 30.2881 69.7697 30.7792 69.7754 31.3492C69.781 31.9191 69.901 32.418 70.1353 32.8457C70.3795 33.2733 70.6928 33.6002 71.075 33.8264C71.4672 34.0425 71.8783 34.1484 72.3083 34.1442C72.7482 34.1398 73.1571 34.0258 73.5349 33.802C73.9127 33.5782 74.2145 33.2552 74.4403 32.833C74.6761 32.4006 74.7911 31.8994 74.7854 31.3295ZM82.3835 35.5293C81.6035 35.537 80.8968 35.369 80.2634 35.0253C79.6299 34.6716 79.1299 34.1765 78.7636 33.5401C78.3972 32.8937 78.2097 32.1455 78.2013 31.2956C78.193 30.4556 78.3706 29.7088 78.7341 29.0552C79.0976 28.4015 79.5976 27.8965 80.2341 27.5402C80.8706 27.1839 81.5839 27.0018 82.3738 26.994C83.1638 26.9861 83.8805 27.154 84.5239 27.4976C85.1674 27.8413 85.6773 28.3362 86.0537 28.9825C86.4302 29.6288 86.6225 30.372 86.6309 31.2119C86.6392 32.0519 86.4566 32.7987 86.0831 33.4525C85.7096 34.1062 85.1946 34.6163 84.5382 34.9829C83.8917 35.3393 83.1735 35.5214 82.3835 35.5293ZM82.3688 34.0444C82.8088 34.04 83.2177 33.9309 83.5956 33.7172C83.9835 33.5033 84.2953 33.1852 84.5312 32.7628C84.767 32.3405 84.8819 31.8293 84.876 31.2293C84.87 30.6294 84.75 30.1255 84.5159 29.7178C84.2818 29.3001 83.9737 28.9882 83.5916 28.782C83.2096 28.5757 82.7985 28.4748 82.3586 28.4792C81.9186 28.4835 81.5096 28.5926 81.1317 28.8064C80.7638 29.02 80.472 29.3379 80.2562 29.7601C80.0402 30.1723 79.9353 30.6783 79.9412 31.2783C79.95 32.1683 80.1819 32.856 80.6367 33.3415C81.1015 33.8169 81.6788 34.0512 82.3688 34.0444Z" fill="#28113C"/>
<path d="M96.5835 24.8279L96.6869 35.2523L94.977 35.2693L94.9317 30.7095L90.027 30.7582L90.0722 35.318L88.3623 35.3349L88.2589 24.9105L89.9688 24.8935L90.0131 29.3633L94.9179 29.3146L94.8735 24.8448L96.5835 24.8279ZM107.026 37.0398L105.177 35.0781C104.728 35.2126 104.234 35.2825 103.694 35.2878C102.724 35.2974 101.827 35.0813 101.002 34.6395C100.188 34.1876 99.5364 33.559 99.0484 32.7538C98.5703 31.9385 98.3262 31.0209 98.316 30.0009C98.3059 28.981 98.5318 28.0637 98.9938 27.2491C99.4657 26.4343 100.104 25.798 100.91 25.34C101.725 24.8718 102.618 24.633 103.588 24.6233C104.568 24.6136 105.465 24.8347 106.28 25.2867C107.104 25.7285 107.755 26.3521 108.233 27.1574C108.711 27.9627 108.955 28.8753 108.966 29.8952C108.975 30.8552 108.774 31.7272 108.361 32.5114C107.959 33.2854 107.395 33.911 106.67 34.3882L109.201 37.0183L107.026 37.0398ZM100.071 29.9835C100.079 30.7535 100.235 31.4319 100.541 32.0189C100.857 32.5958 101.286 33.0416 101.83 33.3562C102.373 33.6609 102.989 33.8097 103.679 33.8029C104.369 33.796 104.982 33.635 105.519 33.3196C106.056 32.9943 106.472 32.5401 106.766 31.9572C107.07 31.3641 107.218 30.6826 107.211 29.9127C107.203 29.1427 107.041 28.4693 106.726 27.8924C106.42 27.3154 105.995 26.8746 105.452 26.5699C104.909 26.2653 104.293 26.1164 103.603 26.1233C102.913 26.1301 102.299 26.2912 101.763 26.6066C101.226 26.9219 100.805 27.3711 100.501 27.9541C100.207 28.5371 100.063 29.2135 100.071 29.9835Z" fill="#A8117E"/>
</g>
<g filter="url(#filter1_ddd_215_2)">
<rect x="20.187" y="30.3789" width="19.8855" height="4.89224" rx="2.44612" transform="rotate(45.2975 20.187 30.3789)" fill="#28113C"/>
<rect x="20.1833" y="31.086" width="18.8855" height="3.89224" rx="1.94612" transform="rotate(45.2975 20.1833 31.086)" stroke="#E5E5E5"/>
</g>
<rect x="14.1387" y="9.35938" width="10.8752" height="1.77823" rx="0.889115" transform="rotate(89.2613 14.1387 9.35938)" fill="#28113C"/>
<g filter="url(#filter2_dd_215_2)">
<mask id="path-5-outside-1_215_2" maskUnits="userSpaceOnUse" x="4.00024" y="0" width="30" height="30" fill="black">
<rect fill="white" x="4.00024" width="30" height="30"/>
<path fill-rule="evenodd" clip-rule="evenodd" d="M32.9931 14.9964C32.9931 22.7265 26.7267 28.9929 18.9967 28.9929C17.7248 28.9929 16.4924 28.8232 15.3212 28.5053L5.28706 17.8292C5.09902 16.9144 5.00024 15.9669 5.00024 14.9964C5.00024 7.26642 11.2667 1 18.9967 1C26.7267 1 32.9931 7.26642 32.9931 14.9964Z"/>
</mask>
<path fill-rule="evenodd" clip-rule="evenodd" d="M32.9931 14.9964C32.9931 22.7265 26.7267 28.9929 18.9967 28.9929C17.7248 28.9929 16.4924 28.8232 15.3212 28.5053L5.28706 17.8292C5.09902 16.9144 5.00024 15.9669 5.00024 14.9964C5.00024 7.26642 11.2667 1 18.9967 1C26.7267 1 32.9931 7.26642 32.9931 14.9964Z" fill="#28113C"/>
<path d="M15.3212 28.5053L14.9568 28.8477L15.0537 28.9508L15.1902 28.9878L15.3212 28.5053ZM5.28706 17.8292L4.7973 17.9299L4.8258 18.0685L4.92272 18.1716L5.28706 17.8292ZM18.9967 29.4929C27.0029 29.4929 33.4931 23.0026 33.4931 14.9964H32.4931C32.4931 22.4503 26.4506 28.4929 18.9967 28.4929V29.4929ZM15.1902 28.9878C16.4038 29.3173 17.6801 29.4929 18.9967 29.4929V28.4929C17.7694 28.4929 16.5811 28.3292 15.4521 28.0228L15.1902 28.9878ZM4.92272 18.1716L14.9568 28.8477L15.6855 28.1629L5.6514 17.4868L4.92272 18.1716ZM4.50024 14.9964C4.50024 16.001 4.60249 16.9821 4.7973 17.9299L5.77682 17.7285C5.59555 16.8466 5.50024 15.9329 5.50024 14.9964H4.50024ZM18.9967 0.5C10.9905 0.5 4.50024 6.99028 4.50024 14.9964H5.50024C5.50024 7.54257 11.5428 1.5 18.9967 1.5V0.5ZM33.4931 14.9964C33.4931 6.99028 27.0029 0.5 18.9967 0.5V1.5C26.4506 1.5 32.4931 7.54257 32.4931 14.9964H33.4931Z" fill="#E5E5E5" mask="url(#path-5-outside-1_215_2)"/>
</g>
<g filter="url(#filter3_ddd_215_2)">
<mask id="path-7-inside-2_215_2" fill="white">
<path fill-rule="evenodd" clip-rule="evenodd" d="M14.4555 32.1303L7.17497 32.0645C6.06955 32.0545 5.16838 32.9426 5.16214 34.048C5.15591 35.1535 6.04697 36.0577 7.15239 36.0677L14.4555 36.1337V32.1303Z"/>
</mask>
<path fill-rule="evenodd" clip-rule="evenodd" d="M14.4555 32.1303L7.17497 32.0645C6.06955 32.0545 5.16838 32.9426 5.16214 34.048C5.15591 35.1535 6.04697 36.0577 7.15239 36.0677L14.4555 36.1337V32.1303Z" fill="#A8117E"/>
<path d="M14.4555 32.1303H15.4555V31.1393L14.4646 31.1304L14.4555 32.1303ZM7.17497 32.0645L7.18401 31.0646L7.17497 32.0645ZM5.16214 34.048L6.16213 34.0537L5.16214 34.048ZM7.15239 36.0677L7.16143 35.0678L7.16143 35.0678L7.15239 36.0677ZM14.4555 36.1337L14.4465 37.1337L15.4555 37.1428V36.1337H14.4555ZM14.4646 31.1304L7.18401 31.0646L7.16593 33.0645L14.4465 33.1303L14.4646 31.1304ZM7.18401 31.0646C5.525 31.0496 4.17151 32.3833 4.16216 34.0424L6.16213 34.0537C6.16524 33.5018 6.6141 33.0595 7.16593 33.0645L7.18401 31.0646ZM4.16216 34.0424C4.15282 35.6988 5.487 37.0527 7.14335 37.0677L7.16143 35.0678C6.60695 35.0627 6.159 34.6082 6.16213 34.0537L4.16216 34.0424ZM7.14335 37.0677L14.4465 37.1337L14.4646 35.1338L7.16143 35.0678L7.14335 37.0677ZM15.4555 36.1337V32.1303H13.4555V36.1337H15.4555Z" fill="#E5E5E5" mask="url(#path-7-inside-2_215_2)"/>
</g>
<g filter="url(#filter4_ddd_215_2)">
<mask id="path-9-inside-3_215_2" fill="white">
<path fill-rule="evenodd" clip-rule="evenodd" d="M14.4462 37.6963L9.89185 37.6388C8.76362 37.6245 7.84532 38.5276 7.84077 39.6559C7.83623 40.7842 8.74715 41.7105 9.87537 41.7247L14.4462 41.7825V37.6963Z"/>
</mask>
<path fill-rule="evenodd" clip-rule="evenodd" d="M14.4462 37.6963L9.89185 37.6388C8.76362 37.6245 7.84532 38.5276 7.84077 39.6559C7.83623 40.7842 8.74715 41.7105 9.87537 41.7247L14.4462 41.7825V37.6963Z" fill="#28113C"/>
<path d="M14.4462 37.6964H15.4462V36.709L14.4589 36.6965L14.4462 37.6964ZM9.89191 37.6388L9.90455 36.6389L9.89191 37.6388ZM7.84084 39.656L6.84085 39.652L7.84084 39.656ZM9.87544 41.7248L9.88808 40.7249L9.88808 40.7249L9.87544 41.7248ZM14.4462 41.7826L14.4336 42.7825L15.4462 42.7953V41.7826H14.4462ZM14.4589 36.6965L9.90455 36.6389L9.87927 38.6388L14.4336 38.6963L14.4589 36.6965ZM9.90455 36.6389C8.22072 36.6176 6.84763 37.968 6.84085 39.652L8.84083 39.66C8.84314 39.0874 9.30665 38.6315 9.87927 38.6388L9.90455 36.6389ZM6.84085 39.652C6.83408 41.3292 8.18568 42.7035 9.86279 42.7247L9.88808 40.7249C9.30873 40.7176 8.83849 40.2394 8.84083 39.66L6.84085 39.652ZM9.86279 42.7247L14.4336 42.7825L14.4589 40.7827L9.88808 40.7249L9.86279 42.7247ZM15.4462 41.7826V37.6964H13.4462V41.7826H15.4462Z" fill="#E5E5E5" mask="url(#path-9-inside-3_215_2)"/>
</g>
<g filter="url(#filter5_ddd_215_2)">
<path fill-rule="evenodd" clip-rule="evenodd" d="M14.4465 43.4441L11.9119 43.4108C11.2477 43.402 10.7072 43.9334 10.7046 44.5977C10.702 45.2619 11.2384 45.8075 11.9026 45.8162L14.4465 45.8497V43.4441Z" fill="#A8117E"/>
</g>
<g filter="url(#filter6_ddd_215_2)">
<path fill-rule="evenodd" clip-rule="evenodd" d="M14.4453 45.8717L13.1058 45.8554C12.6483 45.8498 12.2768 46.2162 12.276 46.6738C12.2752 47.1313 12.6455 47.5067 13.103 47.5122L14.4486 47.5286L14.4453 45.8717Z" fill="#A8117E"/>
</g>
<defs>
<filter id="filter0_d_215_2" x="31.1792" y="23.5791" width="82.022" height="22.1724" filterUnits="userSpaceOnUse" color-interpolation-filters="sRGB">
<feFlood flood-opacity="0" result="BackgroundImageFix"/>
<feColorMatrix in="SourceAlpha" type="matrix" values="0 0 0 0 0 0 0 0 0 0 0 0 0 0 0 0 0 0 127 0" result="hardAlpha"/>
<feOffset dy="4"/>
<feGaussianBlur stdDeviation="2"/>
<feComposite in2="hardAlpha" operator="out"/>
<feColorMatrix type="matrix" values="0 0 0 0 0 0 0 0 0 0 0 0 0 0 0 0 0 0 0.25 0"/>
<feBlend mode="normal" in2="BackgroundImageFix" result="effect1_dropShadow_215_2"/>
<feBlend mode="normal" in="SourceGraphic" in2="effect1_dropShadow_215_2" result="shape"/>
</filter>
<filter id="filter1_ddd_215_2" x="13.7231" y="31.3921" width="23.4385" height="23.5488" filterUnits="userSpaceOnUse" color-interpolation-filters="sRGB">
<feFlood flood-opacity="0" result="BackgroundImageFix"/>
<feColorMatrix in="SourceAlpha" type="matrix" values="0 0 0 0 0 0 0 0 0 0 0 0 0 0 0 0 0 0 127 0" result="hardAlpha"/>
<feOffset dy="4"/>
<feGaussianBlur stdDeviation="2"/>
<feComposite in2="hardAlpha" operator="out"/>
<feColorMatrix type="matrix" values="0 0 0 0 0 0 0 0 0 0 0 0 0 0 0 0 0 0 0.25 0"/>
<feBlend mode="normal" in2="BackgroundImageFix" result="effect1_dropShadow_215_2"/>
<feColorMatrix in="SourceAlpha" type="matrix" values="0 0 0 0 0 0 0 0 0 0 0 0 0 0 0 0 0 0 127 0" result="hardAlpha"/>
<feOffset dy="4"/>
<feGaussianBlur stdDeviation="2"/>
<feComposite in2="hardAlpha" operator="out"/>
<feColorMatrix type="matrix" values="0 0 0 0 0 0 0 0 0 0 0 0 0 0 0 0 0 0 0.25 0"/>
<feBlend mode="normal" in2="effect1_dropShadow_215_2" result="effect2_dropShadow_215_2"/>
<feColorMatrix in="SourceAlpha" type="matrix" values="0 0 0 0 0 0 0 0 0 0 0 0 0 0 0 0 0 0 127 0" result="hardAlpha"/>
<feOffset dy="4"/>
<feGaussianBlur stdDeviation="2"/>
<feComposite in2="hardAlpha" operator="out"/>
<feColorMatrix type="matrix" values="0 0 0 0 0 0 0 0 0 0 0 0 0 0 0 0 0 0 0.25 0"/>
<feBlend mode="normal" in2="effect2_dropShadow_215_2" result="effect3_dropShadow_215_2"/>
<feBlend mode="normal" in="SourceGraphic" in2="effect3_dropShadow_215_2" result="shape"/>
</filter>
<filter id="filter2_dd_215_2" x="0.500244" y="0.5" width="36.9929" height="36.9927" filterUnits="userSpaceOnUse" color-interpolation-filters="sRGB">
<feFlood flood-opacity="0" result="BackgroundImageFix"/>
<feColorMatrix in="SourceAlpha" type="matrix" values="0 0 0 0 0 0 0 0 0 0 0 0 0 0 0 0 0 0 127 0" result="hardAlpha"/>
<feOffset dy="4"/>
<feGaussianBlur stdDeviation="2"/>
<feComposite in2="hardAlpha" operator="out"/>
<feColorMatrix type="matrix" values="0 0 0 0 0 0 0 0 0 0 0 0 0 0 0 0 0 0 0.25 0"/>
<feBlend mode="normal" in2="BackgroundImageFix" result="effect1_dropShadow_215_2"/>
<feColorMatrix in="SourceAlpha" type="matrix" values="0 0 0 0 0 0 0 0 0 0 0 0 0 0 0 0 0 0 127 0" result="hardAlpha"/>
<feOffset dy="4"/>
<feGaussianBlur stdDeviation="2"/>
<feComposite in2="hardAlpha" operator="out"/>
<feColorMatrix type="matrix" values="0 0 0 0 0 0 0 0 0 0 0 0 0 0 0 0 0 0 0.25 0"/>
<feBlend mode="normal" in2="effect1_dropShadow_215_2" result="effect2_dropShadow_215_2"/>
<feBlend mode="normal" in="SourceGraphic" in2="effect2_dropShadow_215_2" result="shape"/>
</filter>
<filter id="filter3_ddd_215_2" x="1.16211" y="32.0645" width="17.2935" height="12.0693" filterUnits="userSpaceOnUse" color-interpolation-filters="sRGB">
<feFlood flood-opacity="0" result="BackgroundImageFix"/>
<feColorMatrix in="SourceAlpha" type="matrix" values="0 0 0 0 0 0 0 0 0 0 0 0 0 0 0 0 0 0 127 0" result="hardAlpha"/>
<feOffset dy="4"/>
<feGaussianBlur stdDeviation="2"/>
<feComposite in2="hardAlpha" operator="out"/>
<feColorMatrix type="matrix" values="0 0 0 0 0 0 0 0 0 0 0 0 0 0 0 0 0 0 0.25 0"/>
<feBlend mode="normal" in2="BackgroundImageFix" result="effect1_dropShadow_215_2"/>
<feColorMatrix in="SourceAlpha" type="matrix" values="0 0 0 0 0 0 0 0 0 0 0 0 0 0 0 0 0 0 127 0" result="hardAlpha"/>
<feOffset dy="4"/>
<feGaussianBlur stdDeviation="2"/>
<feComposite in2="hardAlpha" operator="out"/>
<feColorMatrix type="matrix" values="0 0 0 0 0 0 0 0 0 0 0 0 0 0 0 0 0 0 0.25 0"/>
<feBlend mode="normal" in2="effect1_dropShadow_215_2" result="effect2_dropShadow_215_2"/>
<feColorMatrix in="SourceAlpha" type="matrix" values="0 0 0 0 0 0 0 0 0 0 0 0 0 0 0 0 0 0 127 0" result="hardAlpha"/>
<feOffset dy="4"/>
<feGaussianBlur stdDeviation="2"/>
<feComposite in2="hardAlpha" operator="out"/>
<feColorMatrix type="matrix" values="0 0 0 0 0 0 0 0 0 0 0 0 0 0 0 0 0 0 0.25 0"/>
<feBlend mode="normal" in2="effect2_dropShadow_215_2" result="effect3_dropShadow_215_2"/>
<feBlend mode="normal" in="SourceGraphic" in2="effect3_dropShadow_215_2" result="shape"/>
</filter>
<filter id="filter4_ddd_215_2" x="3.84082" y="37.6387" width="14.6055" height="12.144" filterUnits="userSpaceOnUse" color-interpolation-filters="sRGB">
<feFlood flood-opacity="0" result="BackgroundImageFix"/>
<feColorMatrix in="SourceAlpha" type="matrix" values="0 0 0 0 0 0 0 0 0 0 0 0 0 0 0 0 0 0 127 0" result="hardAlpha"/>
<feOffset dy="4"/>
<feGaussianBlur stdDeviation="2"/>
<feComposite in2="hardAlpha" operator="out"/>
<feColorMatrix type="matrix" values="0 0 0 0 0 0 0 0 0 0 0 0 0 0 0 0 0 0 0.25 0"/>
<feBlend mode="normal" in2="BackgroundImageFix" result="effect1_dropShadow_215_2"/>
<feColorMatrix in="SourceAlpha" type="matrix" values="0 0 0 0 0 0 0 0 0 0 0 0 0 0 0 0 0 0 127 0" result="hardAlpha"/>
<feOffset dy="4"/>
<feGaussianBlur stdDeviation="2"/>
<feComposite in2="hardAlpha" operator="out"/>
<feColorMatrix type="matrix" values="0 0 0 0 0 0 0 0 0 0 0 0 0 0 0 0 0 0 0.25 0"/>
<feBlend mode="normal" in2="effect1_dropShadow_215_2" result="effect2_dropShadow_215_2"/>
<feColorMatrix in="SourceAlpha" type="matrix" values="0 0 0 0 0 0 0 0 0 0 0 0 0 0 0 0 0 0 127 0" result="hardAlpha"/>
<feOffset dy="4"/>
<feGaussianBlur stdDeviation="2"/>
<feComposite in2="hardAlpha" operator="out"/>
<feColorMatrix type="matrix" values="0 0 0 0 0 0 0 0 0 0 0 0 0 0 0 0 0 0 0.25 0"/>
<feBlend mode="normal" in2="effect2_dropShadow_215_2" result="effect3_dropShadow_215_2"/>
<feBlend mode="normal" in="SourceGraphic" in2="effect3_dropShadow_215_2" result="shape"/>
</filter>
<filter id="filter5_ddd_215_2" x="6.70459" y="43.4106" width="11.7417" height="10.439" filterUnits="userSpaceOnUse" color-interpolation-filters="sRGB">
<feFlood flood-opacity="0" result="BackgroundImageFix"/>
<feColorMatrix in="SourceAlpha" type="matrix" values="0 0 0 0 0 0 0 0 0 0 0 0 0 0 0 0 0 0 127 0" result="hardAlpha"/>
<feOffset dy="4"/>
<feGaussianBlur stdDeviation="2"/>
<feComposite in2="hardAlpha" operator="out"/>
<feColorMatrix type="matrix" values="0 0 0 0 0 0 0 0 0 0 0 0 0 0 0 0 0 0 0.25 0"/>
<feBlend mode="normal" in2="BackgroundImageFix" result="effect1_dropShadow_215_2"/>
<feColorMatrix in="SourceAlpha" type="matrix" values="0 0 0 0 0 0 0 0 0 0 0 0 0 0 0 0 0 0 127 0" result="hardAlpha"/>
<feOffset dy="4"/>
<feGaussianBlur stdDeviation="2"/>
<feComposite in2="hardAlpha" operator="out"/>
<feColorMatrix type="matrix" values="0 0 0 0 0 0 0 0 0 0 0 0 0 0 0 0 0 0 0.25 0"/>
<feBlend mode="normal" in2="effect1_dropShadow_215_2" result="effect2_dropShadow_215_2"/>
<feColorMatrix in="SourceAlpha" type="matrix" values="0 0 0 0 0 0 0 0 0 0 0 0 0 0 0 0 0 0 127 0" result="hardAlpha"/>
<feOffset dy="4"/>
<feGaussianBlur stdDeviation="2"/>
<feComposite in2="hardAlpha" operator="out"/>
<feColorMatrix type="matrix" values="0 0 0 0 0 0 0 0 0 0 0 0 0 0 0 0 0 0 0.25 0"/>
<feBlend mode="normal" in2="effect2_dropShadow_215_2" result="effect3_dropShadow_215_2"/>
<feBlend mode="normal" in="SourceGraphic" in2="effect3_dropShadow_215_2" result="shape"/>
</filter>
<filter id="filter6_ddd_215_2" x="8.27588" y="45.8555" width="10.1729" height="9.67334" filterUnits="userSpaceOnUse" color-interpolation-filters="sRGB">
<feFlood flood-opacity="0" result="BackgroundImageFix"/>
<feColorMatrix in="SourceAlpha" type="matrix" values="0 0 0 0 0 0 0 0 0 0 0 0 0 0 0 0 0 0 127 0" result="hardAlpha"/>
<feOffset dy="4"/>
<feGaussianBlur stdDeviation="2"/>
<feComposite in2="hardAlpha" operator="out"/>
<feColorMatrix type="matrix" values="0 0 0 0 0 0 0 0 0 0 0 0 0 0 0 0 0 0 0.25 0"/>
<feBlend mode="normal" in2="BackgroundImageFix" result="effect1_dropShadow_215_2"/>
<feColorMatrix in="SourceAlpha" type="matrix" values="0 0 0 0 0 0 0 0 0 0 0 0 0 0 0 0 0 0 127 0" result="hardAlpha"/>
<feOffset dy="4"/>
<feGaussianBlur stdDeviation="2"/>
<feComposite in2="hardAlpha" operator="out"/>
<feColorMatrix type="matrix" values="0 0 0 0 0 0 0 0 0 0 0 0 0 0 0 0 0 0 0.25 0"/>
<feBlend mode="normal" in2="effect1_dropShadow_215_2" result="effect2_dropShadow_215_2"/>
<feColorMatrix in="SourceAlpha" type="matrix" values="0 0 0 0 0 0 0 0 0 0 0 0 0 0 0 0 0 0 127 0" result="hardAlpha"/>
<feOffset dy="4"/>
<feGaussianBlur stdDeviation="2"/>
<feComposite in2="hardAlpha" operator="out"/>
<feColorMatrix type="matrix" values="0 0 0 0 0 0 0 0 0 0 0 0 0 0 0 0 0 0 0.25 0"/>
<feBlend mode="normal" in2="effect2_dropShadow_215_2" result="effect3_dropShadow_215_2"/>
<feBlend mode="normal" in="SourceGraphic" in2="effect3_dropShadow_215_2" result="shape"/>
</filter>
</defs>
</svg>
